<svg width="21" height="19" viewBox="0 0 21 19" fill="none" xmlns="http://www.w3.org/2000/svg">
<path fill-rule="evenodd" clip-rule="evenodd" d="M6.60408 18.9731C14.5286 18.9731 18.863 12.0474 18.863 6.04145C18.863 5.84474 18.863 5.64891 18.8504 5.45397C19.6937 4.81059 20.4216 4.01395 21 3.10138C20.2137 3.46893 19.3795 3.70997 18.5254 3.81646C19.4248 3.24846 20.0979 2.35508 20.4196 1.3026C19.5738 1.832 18.6485 2.2051 17.6837 2.40579C17.034 1.67714 16.1749 1.19464 15.2392 1.03297C14.3034 0.871295 13.3433 1.03946 12.5072 1.51143C11.6712 1.98341 11.006 2.73288 10.6144 3.64388C10.2229 4.55488 10.1269 5.57661 10.3412 6.55096C8.62827 6.46037 6.95251 5.9908 5.42274 5.17271C3.89297 4.35463 2.54338 3.20634 1.4616 1.80236C0.910638 2.80291 0.741888 3.98736 0.989712 5.11454C1.23754 6.24172 1.8833 7.2269 2.79552 7.86948C2.10986 7.84805 1.43915 7.65293 0.84 7.3006C0.84 7.31921 0.84 7.3387 0.84 7.3582C0.840272 8.40753 1.18462 9.42447 1.81464 10.2365C2.44465 11.0486 3.32155 11.6057 4.2966 11.8135C3.66229 11.996 2.99676 12.0227 2.35116 11.8915C2.62648 12.7946 3.16248 13.5843 3.88422 14.1502C4.60595 14.7161 5.47731 15.03 6.37644 15.0477C4.85078 16.3126 2.96609 16.9992 1.02564 16.9971C0.682839 16.9965 0.340371 16.9745 0 16.9316C1.97034 18.2655 4.26293 18.9729 6.60408 18.9696" fill="black"/>
</svg>
