<svg width="98" height="27" viewBox="0 0 98 27" fill="none" xmlns="http://www.w3.org/2000/svg">
<path d="M14.172 2.89939C14.172 3.95803 13.3137 4.81629 12.2551 4.81629C11.1964 4.81629 10.3381 3.95803 10.3381 2.89939C10.3381 1.84074 11.1964 0.982483 12.2551 0.982483C13.3137 0.982483 14.172 1.84074 14.172 2.89939ZM12.2551 6.33066C11.1539 6.33066 10.2619 7.22261 10.2619 8.32381C10.2619 9.42501 11.1539 10.317 12.2551 10.317C13.3563 10.317 14.2482 9.42501 14.2482 8.32381C14.2482 7.22261 13.3563 6.33066 12.2551 6.33066ZM12.2551 11.6788C11.1113 11.6788 10.1839 12.6063 10.1839 13.75C10.1839 14.8938 11.1113 15.8212 12.2551 15.8212C13.3988 15.8212 14.3262 14.8938 14.3262 13.75C14.3262 12.6063 13.3988 11.6788 12.2551 11.6788V11.6788ZM12.2551 17.1813C11.1539 17.1813 10.2619 18.0732 10.2619 19.1744C10.2619 20.2756 11.1539 21.1676 12.2551 21.1676C13.3563 21.1676 14.2482 20.2756 14.2482 19.1744C14.2482 18.0732 13.3563 17.1813 12.2551 17.1813ZM12.2551 22.6837C11.1964 22.6837 10.3381 23.542 10.3381 24.6006C10.3381 25.6593 11.1964 26.5175 12.2551 26.5175C13.3137 26.5175 14.172 25.6593 14.172 24.6006C14.172 23.542 13.3137 22.6837 12.2551 22.6837V22.6837ZM17.5341 6.07531C16.291 6.07531 15.2856 7.08252 15.2856 8.32381C15.2856 9.5651 16.2928 10.5723 17.5341 10.5723C18.7754 10.5723 19.7826 9.5651 19.7826 8.32381C19.7826 7.08252 18.7754 6.07531 17.5341 6.07531ZM17.5341 11.4235C16.2502 11.4235 15.2075 12.4644 15.2075 13.75C15.2075 15.0356 16.2484 16.0765 17.5341 16.0765C18.8197 16.0765 19.8606 15.0356 19.8606 13.75C19.8606 12.4644 18.8197 11.4235 17.5341 11.4235V11.4235ZM17.5341 16.9259C16.291 16.9259 15.2856 17.9331 15.2856 19.1744C15.2856 20.4157 16.2928 21.4229 17.5341 21.4229C18.7754 21.4229 19.7826 20.4157 19.7826 19.1744C19.7826 17.9331 18.7754 16.9259 17.5341 16.9259ZM22.9532 11.1681C21.5275 11.1681 20.3713 12.3243 20.3713 13.75C20.3713 15.1757 21.5275 16.3319 22.9532 16.3319C24.3789 16.3319 25.5351 15.1757 25.5351 13.75C25.5351 12.3243 24.3789 11.1681 22.9532 11.1681ZM6.90688 6.58601C5.94754 6.58601 5.16907 7.36447 5.16907 8.32381C5.16907 9.28315 5.94754 10.0616 6.90688 10.0616C7.86621 10.0616 8.64468 9.28315 8.64468 8.32381C8.64468 7.36447 7.86621 6.58601 6.90688 6.58601V6.58601ZM6.90688 11.9342C5.90498 11.9342 5.09282 12.7463 5.09282 13.7482C5.09282 14.7501 5.90498 15.5623 6.90688 15.5623C7.90877 15.5623 8.72093 14.7501 8.72093 13.7482C8.72093 12.7463 7.90877 11.9342 6.90688 11.9342ZM6.90688 17.4366C5.94754 17.4366 5.16907 18.2151 5.16907 19.1744C5.16907 20.1338 5.94754 20.9122 6.90688 20.9122C7.86621 20.9122 8.64468 20.1338 8.64468 19.1744C8.64468 18.2151 7.86621 17.4366 6.90688 17.4366ZM1.5587 12.1913C0.696894 12.1913 0 12.89 0 13.75C0 14.61 0.698667 15.3087 1.5587 15.3087C2.41874 15.3087 3.1174 14.61 3.1174 13.75C3.1174 12.89 2.41874 12.1913 1.5587 12.1913Z" fill="black"/>
<path d="M46.7748 10.3895H45.147C44.9609 10.3895 44.8101 10.5403 44.8101 10.7264V24.2635C44.8101 24.4496 44.9609 24.6004 45.147 24.6004H46.7748C46.9609 24.6004 47.1118 24.4496 47.1118 24.2635V10.7264C47.1118 10.5403 46.9609 10.3895 46.7748 10.3895Z" fill="black"/>
<path d="M45.9606 4.70074C45.1005 4.70074 44.4019 5.39941 44.4019 6.25945C44.4019 7.11948 45.1005 7.81815 45.9606 7.81815C46.8206 7.81815 47.5193 7.11948 47.5193 6.25945C47.5193 5.39941 46.8206 4.70074 45.9606 4.70074Z" fill="black"/>
<path d="M81.5395 10.3895H79.9116C79.7256 10.3895 79.5747 10.5403 79.5747 10.7264V24.2635C79.5747 24.4496 79.7256 24.6004 79.9116 24.6004H81.5395C81.7256 24.6004 81.8764 24.4496 81.8764 24.2635V10.7264C81.8764 10.5403 81.7256 10.3895 81.5395 10.3895Z" fill="black"/>
<path d="M80.7256 4.70074C79.8726 4.70074 79.1562 5.39941 79.1562 6.25945C79.1562 7.11948 79.8726 7.81815 80.7256 7.81815C81.5785 7.81815 82.2737 7.11948 82.2737 6.25945C82.2737 5.39941 81.5785 4.70074 80.7256 4.70074Z" fill="black"/>
<path d="M97.184 23.4109C97.2426 23.3559 97.2728 23.2796 97.2728 23.1838V23.1767C97.2728 23.1323 97.2639 23.0897 97.2479 23.0525C97.2302 23.0152 97.2089 22.9833 97.184 22.9584C97.1468 22.9212 97.0989 22.8928 97.0403 22.8715C96.98 22.8502 96.9143 22.8395 96.8416 22.8395H96.3838V24.0124H96.5222V23.5422H96.7937L97.1645 24.0124H97.3437L96.9534 23.5191C97.0492 23.5014 97.1273 23.4659 97.1858 23.4109H97.184ZM96.5204 23.4144V22.9726H96.8345C96.9268 22.9726 96.9977 22.9921 97.051 23.0312C97.1042 23.0702 97.129 23.1217 97.129 23.1855V23.1926C97.129 23.2672 97.0989 23.3239 97.0403 23.3612C96.9818 23.3985 96.9072 23.418 96.8167 23.418H96.5186L96.5204 23.4144Z" fill="black"/>
<path d="M96.7866 22.2987C96.1518 22.2987 95.6357 22.8147 95.6357 23.4496C95.6357 24.0844 96.1518 24.6004 96.7866 24.6004C97.4214 24.6004 97.9374 24.0844 97.9374 23.4496C97.9374 22.8147 97.4214 22.2987 96.7866 22.2987V22.2987ZM96.7866 24.4834C96.2174 24.4834 95.7528 24.0205 95.7528 23.4496C95.7528 22.8786 96.2156 22.4157 96.7866 22.4157C97.3576 22.4157 97.8204 22.8786 97.8204 23.4496C97.8204 24.0205 97.3576 24.4834 96.7866 24.4834Z" fill="black"/>
<path d="M58.5798 12.6911C58.7642 12.6911 58.9167 12.5404 58.9167 12.3542V10.7264C58.9167 10.5419 58.766 10.3894 58.5798 10.3894H55.1078V5.17249C55.1078 4.98807 54.957 4.83557 54.7708 4.83557H53.1412C52.9568 4.83557 52.8043 4.9863 52.8043 5.17249V10.3894H51.0576C50.8732 10.3894 50.7207 10.5402 50.7207 10.7264V12.3542C50.7207 12.5386 50.8714 12.6911 51.0576 12.6911H52.8043V20.5893C52.8043 22.9885 54.4162 24.6004 56.8154 24.6004H58.5781C58.7625 24.6004 58.915 24.4497 58.915 24.2635V22.6356C58.915 22.4512 58.7642 22.2987 58.5781 22.2987H57.0193C55.8933 22.2987 55.106 21.4901 55.106 20.3339V12.6929H58.5781L58.5798 12.6911Z" fill="black"/>
<path d="M92.9988 12.6911C93.1832 12.6911 93.3357 12.5404 93.3357 12.3542V10.7264C93.3357 10.5419 93.185 10.3894 92.9988 10.3894H89.5267V5.17249C89.5267 4.98807 89.376 4.83557 89.1898 4.83557H87.5602C87.3757 4.83557 87.2232 4.9863 87.2232 5.17249V10.3894H85.4766C85.2921 10.3894 85.1396 10.5402 85.1396 10.7264V12.3542C85.1396 12.5386 85.2904 12.6911 85.4766 12.6911H87.2232V20.5893C87.2232 22.9885 88.8351 24.6004 91.2344 24.6004H92.997C93.1814 24.6004 93.3339 24.4497 93.3339 24.2635V22.6356C93.3339 22.4512 93.1832 22.2987 92.997 22.2987H91.4383C90.3123 22.2987 89.5249 21.4901 89.5249 20.3339V12.6929H92.997L92.9988 12.6911Z" fill="black"/>
<path d="M34.8531 12.6912V24.2635C34.8531 24.4479 35.0038 24.6004 35.19 24.6004H36.8179C37.0023 24.6004 37.1548 24.4497 37.1548 24.2635V12.6912H40.9851C41.1695 12.6912 41.322 12.5404 41.322 12.3542V10.7264C41.322 10.542 41.1713 10.3895 40.9851 10.3895H37.1548V7.25786C37.1548 6.08573 37.9776 5.20087 39.0682 5.20087H40.9851C41.1695 5.20087 41.322 5.05014 41.322 4.86395V3.23609C41.322 3.05167 41.1713 2.89917 40.9851 2.89917H39.2118C36.809 2.89917 34.8531 4.85508 34.8531 7.25786V10.3895H33.1065C32.922 10.3895 32.7695 10.5402 32.7695 10.7264V12.3542C32.7695 12.5387 32.9203 12.6912 33.1065 12.6912H34.8531Z" fill="black"/>
<path d="M74.417 12.0369C73.1403 10.6591 71.3475 9.90015 69.3685 9.90015C67.5899 9.90015 65.728 10.6893 64.6534 11.8401V3.23621C64.6534 3.05179 64.5027 2.89929 64.3165 2.89929H62.6851C62.5006 2.89929 62.3481 3.05002 62.3481 3.23621V17.4986C62.3481 22.7741 65.8734 25.1343 69.3667 25.1343C72.8601 25.1343 76.3853 22.7741 76.3853 17.4986C76.3853 15.3175 75.7044 13.4272 74.4152 12.0369H74.417ZM69.3685 22.8308C65.8929 22.8308 64.6534 20.0769 64.6534 17.4986C64.6534 14.3315 66.549 12.2036 69.3685 12.2036C72.188 12.2036 74.0836 14.3315 74.0836 17.4986C74.0836 20.0752 72.8459 22.8308 69.3685 22.8308Z" fill="black"/>
</svg>