<svg width="86" height="23" viewBox="0 0 86 23" fill="none" xmlns="http://www.w3.org/2000/svg">
<path d="M39.9844 0C40.9166 0 41.8345 0 42.7667 0C43.3834 0 44.0001 0 44.6167 0C44.6167 1.15171 44.6167 2.30342 44.6167 3.45513C44.6167 5.75855 44.6167 8.06197 44.6167 10.3654C45.3051 9.35764 46.3234 8.50826 47.5568 8.24912C49.0196 7.97559 50.6976 8.11955 51.8736 9.1129C52.7054 9.78953 53.2074 10.7973 53.4512 11.8194C53.7093 12.8848 53.7093 13.9933 53.695 15.0874C53.695 15.3753 53.695 15.6489 53.695 15.9224C53.695 16.7574 53.695 17.5924 53.695 18.4418V18.4561C53.695 19.8094 53.695 21.1483 53.6806 22.5015C52.7628 22.4871 51.8306 22.5015 50.9127 22.5015C50.296 22.5015 49.6793 22.5015 49.0626 22.5015C49.0626 21.465 49.0626 20.4428 49.0626 19.4063V19.3919C49.0626 17.9523 49.0626 16.527 49.0626 15.0874C49.0196 14.2236 48.9622 13.2735 48.3456 12.5968C47.4851 11.7618 45.8645 12.0066 45.2334 13.0143C44.8032 13.6766 44.6598 14.4684 44.6598 15.2458C44.6598 16.3543 44.6598 17.4628 44.6598 18.5569C44.6598 19.8814 44.6598 21.2059 44.6598 22.5303C43.6415 22.5447 42.6376 22.5447 41.6193 22.5447C41.0887 22.5447 40.5581 22.5447 40.0274 22.5447C40.0131 21.0907 40.0274 19.651 40.0274 18.197C40.0274 15.5625 40.0418 12.9279 39.9844 10.279V8.56584C39.9844 5.71536 39.9987 2.86488 39.9844 0ZM60.8084 8.17714C63.1318 7.87482 65.6272 8.43627 67.4199 9.97669C70.2882 12.4241 70.6037 17.1317 68.3808 20.0973C65.6702 23.5525 60.0053 23.9124 56.678 21.1483C55.0431 19.8094 54.1826 17.6787 54.2256 15.6057C54.1826 13.8637 54.7276 12.093 55.8606 10.7541C57.0653 9.28566 58.9153 8.40748 60.8084 8.17714ZM83.9127 10.2502C82.0483 8.43627 79.2517 7.80283 76.7133 8.20593C74.7198 8.50826 72.798 9.54479 71.6507 11.2148C70.4747 12.8848 70.1735 15.0298 70.5033 17.0021C70.7902 18.7297 71.7511 20.3565 73.1852 21.393C75.1787 22.8614 77.8462 23.2501 80.2413 22.7175C82.2921 22.2712 84.1996 20.9755 85.1605 19.0896C86.5803 16.2823 86.2217 12.5104 83.9127 10.2502ZM0 8.65222C1.06128 8.66661 2.12256 8.66662 3.18384 8.66662C3.82921 8.66662 4.48892 8.66662 5.1343 8.66662C5.56454 9.64557 5.98045 10.6245 6.39636 11.5891C7.04173 13.1007 7.6871 14.5979 8.36116 16.0951C9.10692 14.31 9.86703 12.5392 10.6415 10.7541V10.7397C10.957 10.0199 11.2582 9.31445 11.5737 8.59463H12.2621H12.2764C12.9505 8.59463 13.6389 8.59463 14.3129 8.59463C14.8722 9.89031 15.4316 11.186 16.0052 12.4961V12.5104V12.5248V12.5392L16.0196 12.568L16.0339 12.5968C16.5359 13.7485 17.0378 14.9002 17.5398 16.0664C18.2425 14.5115 18.9166 12.9423 19.5763 11.3731C19.9779 10.4518 20.3651 9.5304 20.7666 8.60903C21.4694 8.60903 22.1721 8.60903 22.8749 8.60903C23.8788 8.60903 24.8827 8.60903 25.8723 8.62343C24.7536 10.9412 23.635 13.2447 22.5163 15.5481L22.502 15.5625C21.3833 17.8803 20.2503 20.1981 19.1317 22.5159C18.1134 22.5303 17.0952 22.5303 16.0769 22.5159C15.7184 21.6809 15.3742 20.8459 15.03 20.0254C14.3416 18.3554 13.6389 16.6854 12.8788 15.0442C12.3051 16.4551 11.7171 17.8659 11.1147 19.2623C10.6558 20.3565 10.1969 21.465 9.73795 22.5591C9.19297 22.5735 8.64799 22.5735 8.10301 22.5591C7.64408 22.5591 7.19949 22.5591 6.74056 22.5591C6.16689 21.393 5.60757 20.2269 5.0339 19.0608L5.00522 19.0032C3.34159 15.5769 1.64928 12.1217 0 8.65222ZM34.7067 9.89031C32.7419 7.55809 28.8697 7.64447 26.6897 9.64557C23.4772 12.5392 23.3768 18.0674 26.3742 21.1483C27.8084 22.6311 30.0457 23.3509 32.0822 22.8326C33.1578 22.5735 34.1761 21.9257 34.721 20.9467C34.721 21.2059 34.721 21.4794 34.721 21.7385C34.721 21.9977 34.721 22.2568 34.721 22.5303C35.768 22.5447 36.8292 22.5447 37.8762 22.5447C38.3638 22.5447 38.8514 22.5447 39.3534 22.5447C39.3677 19.6654 39.3534 16.7862 39.339 13.9069C39.3247 12.1505 39.3103 10.3942 39.3103 8.62343H38.4642C37.2021 8.62343 35.9401 8.62343 34.6923 8.62343C34.6637 9.04092 34.678 9.47281 34.7067 9.89031ZM64.0783 13.2735C63.2895 12.4529 61.9988 12.2225 60.9518 12.6112C58.9153 13.3454 58.4994 16.2679 59.8906 17.7795C61.0522 19.0464 63.4042 18.9168 64.3651 17.4916C65.2113 16.2247 65.1109 14.3964 64.0783 13.2735ZM77.0431 12.6256C78.0183 12.2513 79.2374 12.3521 80.0405 13.0575C81.3169 14.1516 81.4603 16.2247 80.4708 17.5492C79.3665 19.0464 76.6989 18.96 75.7524 17.3476C74.7915 15.7928 75.2361 13.3454 77.0431 12.6256ZM30.8775 12.6544C31.8384 12.3089 32.9857 12.4529 33.7745 13.1151C35.1369 14.2956 35.1943 16.6134 33.9609 17.8947C32.957 18.8592 31.236 18.9312 30.1174 18.1106C28.3677 16.743 28.6976 13.4318 30.8775 12.6544Z" fill="black"/>
</svg>