<svg width="25" height="19" viewBox="0 0 25 19" fill="none" xmlns="http://www.w3.org/2000/svg">
<path d="M23.944 4.06689C23.7163 2.82983 22.6314 1.92896 21.3724 1.64771C19.4883 1.25439 16.0014 0.973145 12.2287 0.973145C8.45831 0.973145 4.9156 1.25439 3.02928 1.64771C1.77247 1.92896 0.685327 2.77271 0.457628 4.06689C0.227698 5.47314 0 7.44189 0 9.97314C0 12.5044 0.227698 14.4731 0.513437 15.8794C0.743367 17.1165 1.82828 18.0173 3.08509 18.2986C5.08526 18.6919 8.51412 18.9731 12.2868 18.9731C16.0594 18.9731 19.4883 18.6919 21.4885 18.2986C22.7453 18.0173 23.8302 17.1736 24.0601 15.8794C24.2878 14.4731 24.5735 12.4473 24.6316 9.97314C24.5155 7.44189 24.2298 5.47314 23.944 4.06689ZM9.14364 13.9106V6.03564L16.1152 9.97314L9.14364 13.9106Z" fill="black"/>
</svg>
