<svg width="21" height="21" viewBox="0 0 21 21" fill="none" xmlns="http://www.w3.org/2000/svg">
<path fill-rule="evenodd" clip-rule="evenodd" d="M19.475 0.973145H1.68195C1.07232 0.973145 0.578125 1.46734 0.578125 2.07697V19.8693C0.578125 20.1621 0.694421 20.4428 0.901428 20.6498C1.10844 20.8568 1.3892 20.9731 1.68195 20.9731H11.2612V13.2284H8.65486V10.2099H11.2612V7.98352C11.2612 5.40044 12.8386 3.99386 15.1437 3.99386C15.9216 3.99119 16.6991 4.03096 17.4727 4.11301V6.81076H15.8743C14.6214 6.81076 14.3756 7.40651 14.3756 8.28027V10.2077H17.3648L16.9759 13.2261H14.3786V20.9731H19.4743C19.7671 20.9731 20.0478 20.8568 20.2548 20.6498C20.4618 20.4428 20.5781 20.1621 20.5781 19.8693V2.07697C20.5781 1.46764 20.0844 0.973558 19.475 0.973145Z" fill="black"/>
</svg>
