<svg width="103" height="17" viewBox="0 0 103 17" fill="none" xmlns="http://www.w3.org/2000/svg">
<path d="M28.4953 0H26.3037V16.6557H28.4953V0Z" fill="black"/>
<path d="M36.3785 7.45142H30.2422V9.64296H36.3785V7.45142Z" fill="black"/>
<path d="M40.3283 0H38.1367V16.6557H40.3283V0Z" fill="black"/>
<path d="M85.9092 16.6557H87.6624V0H85.9092V16.6557Z" fill="black"/>
<path d="M92.5543 0H89.8516V1.98736H92.5543C94.5849 2.04295 96.1764 3.75235 96.1215 5.7953C96.0666 7.76876 94.5025 9.35308 92.5543 9.40867H89.8516V11.396H92.5543C95.655 11.396 98.1794 8.83887 98.1794 5.69801C98.1794 2.55716 95.6687 0 92.5543 0Z" fill="black"/>
<path d="M52.8124 0C48.087 0 44.2583 3.73054 44.2725 8.33478C44.2867 12.939 48.1012 16.6696 52.8266 16.6557C57.552 16.6557 61.3665 12.9252 61.3665 8.32091C61.3523 3.73054 57.5378 0 52.8124 0ZM52.8124 14.7003C49.2114 14.7003 46.2794 11.8434 46.2794 8.33478C46.2794 4.82613 49.2114 1.96928 52.8124 1.96928C56.4134 1.96928 59.3454 4.81226 59.3454 8.33478C59.3454 11.8434 56.4276 14.7003 52.8124 14.7003Z" fill="black"/>
<path d="M73.1872 0C68.5829 0 64.8524 3.73054 64.8662 8.33478C64.8801 12.939 68.5968 16.6696 73.201 16.6557C77.8053 16.6557 81.5219 12.9252 81.5219 8.32091C81.5081 3.73054 77.7914 0 73.1872 0ZM73.1872 14.7003C69.6785 14.7003 66.8217 11.8573 66.8217 8.33478C66.8217 4.81226 69.6646 1.96928 73.1872 1.96928C76.6958 1.96928 79.5527 4.81226 79.5527 8.33478C79.5527 11.8434 76.6958 14.7003 73.1872 14.7003Z" fill="black"/>
<path d="M16.3689 13.4106L14.2321 6.29617H12.2734L15.3964 16.6557H17.3414L22.3545 0H20.3958L16.3689 13.4106Z" fill="black"/>
<path d="M2.01859 0H0L3.2269 10.5194H5.2597L2.01859 0Z" fill="black"/>
<path d="M10.2976 0L5.25879 16.6557H7.2191L12.2717 0H10.2976Z" fill="black"/>
<path d="M101.685 2.62985C100.961 2.62985 100.37 2.03887 100.37 1.31493C100.37 0.590979 100.961 0 101.685 0C102.409 0 103 0.590979 103 1.31493C103 2.03887 102.409 2.62985 101.685 2.62985ZM101.685 0.251165C101.109 0.251165 100.636 0.723948 100.636 1.30015V1.31493C100.607 1.89113 101.05 2.37869 101.626 2.40823C102.202 2.43778 102.69 1.99455 102.719 1.41835C102.719 1.3888 102.719 1.34448 102.719 1.31493C102.734 0.738724 102.276 0.26594 101.7 0.251165H101.685ZM101.966 2.0241L101.67 1.46267H101.493V2.0241H101.227V0.605753H101.759C101.995 0.605753 102.202 0.783046 102.217 1.03421C102.217 1.2115 102.099 1.35925 101.936 1.41835L102.246 2.00933L101.966 2.0241ZM101.729 0.82737H101.493V1.25583H101.729C101.848 1.2706 101.951 1.19673 101.981 1.07853C101.995 0.960339 101.921 0.856919 101.803 0.82737H101.788C101.774 0.82737 101.744 0.82737 101.729 0.82737Z" fill="black"/>
</svg>