<svg width="23" height="22" viewBox="0 0 23 22" fill="none" xmlns="http://www.w3.org/2000/svg">
<path fill-rule="evenodd" clip-rule="evenodd" d="M11.6004 0C8.62189 0 8.2474 0.0130661 7.07604 0.0653307C5.90902 0.117595 5.11214 0.304877 4.41542 0.574911C3.69257 0.853655 3.08294 1.23257 2.47331 1.84232C1.86368 2.45208 1.48919 3.06619 1.20614 3.78483C0.936164 4.48168 0.74892 5.27872 0.696665 6.45032C0.644411 7.61756 0.631348 7.99212 0.631348 10.9712C0.631348 13.9502 0.644411 14.3249 0.696665 15.4964C0.74892 16.6637 0.936164 17.4607 1.20614 18.1619C1.48483 18.885 1.86368 19.4947 2.47331 20.1044C3.08294 20.7142 3.69693 21.0888 4.41542 21.3719C5.11214 21.6419 5.90902 21.8291 7.08038 21.8815C8.25175 21.9337 8.62189 21.9468 11.6047 21.9468C14.5876 21.9468 14.9578 21.9337 16.1291 21.8815C17.2961 21.8291 18.093 21.6419 18.7941 21.3719C19.5169 21.0931 20.1266 20.7142 20.7361 20.1044C21.3458 19.4947 21.7203 18.8806 22.0033 18.1619C22.2733 17.4651 22.4606 16.668 22.5128 15.4964C22.5651 14.3249 22.5781 13.9546 22.5781 10.9712C22.5781 7.98777 22.5651 7.61756 22.5128 6.44596C22.4606 5.27872 22.2733 4.48168 22.0033 3.78047C21.7246 3.05748 21.3458 2.44772 20.7361 1.83798C20.1266 1.22822 19.5126 0.853655 18.7941 0.570554C18.0974 0.300521 17.3005 0.11324 16.1291 0.0609754C14.9534 0.0130661 14.5788 0 11.6004 0ZM11.6005 1.97715C14.5312 1.97715 14.8752 1.99022 16.0334 2.04248C17.1046 2.09039 17.6838 2.26896 18.0714 2.4214C18.5852 2.62175 18.9509 2.85694 19.3342 3.24022C19.7174 3.62348 19.9569 3.98934 20.1528 4.50328C20.3009 4.8909 20.4838 5.47017 20.5316 6.54159C20.5839 7.70013 20.5969 8.0442 20.5969 10.9754C20.5969 13.9066 20.5839 14.2506 20.5316 15.4092C20.4838 16.4806 20.3053 17.0598 20.1528 17.4475C19.9525 17.9614 19.7174 18.3272 19.3342 18.7105C18.9509 19.0938 18.5852 19.3334 18.0714 19.5294C17.6838 19.6774 17.1046 19.8603 16.0334 19.9083C14.8752 19.9605 14.5312 19.9736 11.6005 19.9736C8.66996 19.9736 8.32595 19.9605 7.16765 19.9083C6.09644 19.8603 5.51728 19.6818 5.12973 19.5294C4.6159 19.329 4.25012 19.0938 3.86692 18.7105C3.48373 18.3272 3.24422 17.9614 3.04827 17.4475C2.90022 17.0598 2.71732 16.4806 2.66943 15.4092C2.61717 14.2506 2.60411 13.9066 2.60411 10.9754C2.60411 8.0442 2.61717 7.70013 2.66943 6.54159C2.71732 5.47017 2.89586 4.8909 3.04827 4.50328C3.24858 3.98934 3.48373 3.62348 3.86692 3.24022C4.25012 2.85694 4.6159 2.61739 5.12973 2.4214C5.51728 2.27332 6.09644 2.09039 7.16765 2.04248C8.32595 1.98586 8.6743 1.97715 11.6005 1.97715ZM5.96611 10.9758C5.96611 7.86173 8.49173 5.33997 11.6009 5.33997C14.7143 5.33997 17.2356 7.86173 17.2356 10.9758C17.2356 14.0899 14.7143 16.6117 11.6009 16.6117C8.48738 16.6117 5.96611 14.0899 5.96611 10.9758ZM11.601 14.63C9.58054 14.63 7.94325 12.9924 7.94325 10.9715C7.94325 8.9506 9.58054 7.31299 11.601 7.31299C13.6215 7.31299 15.2588 8.9506 15.2588 10.9715C15.2588 12.9924 13.6215 14.63 11.601 14.63ZM18.7719 5.1138C18.7719 5.84024 18.1832 6.42913 17.4569 6.42913C16.7306 6.42913 16.1418 5.84024 16.1418 5.1138C16.1418 4.38737 16.7306 3.79848 17.4569 3.79848C18.1832 3.79848 18.7719 4.38737 18.7719 5.1138Z" fill="black"/>
</svg>
