<svg width="81" height="25" viewBox="0 0 81 25" fill="none" xmlns="http://www.w3.org/2000/svg">
<path d="M5.18673 2.21755H15.5484V0H5.18673V2.21755ZM52.5259 14.099H45.281V6.72269H52.5259C55.1134 6.72269 56.8423 8.20495 56.8423 10.4108C56.8423 12.6167 55.1134 14.099 52.5259 14.099ZM54.9252 15.8263C57.4069 15.1261 59.0181 13.0019 59.0181 10.4108C59.0181 7.06116 56.4071 4.80859 52.5259 4.80859H43.1051V24.6265H45.281V16.0481H52.6553L57.348 24.6265H59.7003L54.8076 15.8613L54.9252 15.8263ZM31.8143 25C37.1539 25 40.8705 21.2768 40.8705 15.9547V4.80859H38.6358V15.803C38.6358 19.9113 35.8249 22.7708 31.8143 22.7708C28.4858 22.7708 24.8987 20.5882 24.8987 15.803V4.80859H22.664V15.9547C22.664 21.2768 26.4276 25 31.8143 25ZM70.8382 7.38796L75.5545 17.6237H66.0984L70.8382 7.38796ZM69.7915 4.80859L60.6647 24.6265H63.0052L65.2634 19.5495H76.4013L78.6595 24.6265H81L71.8732 4.80859H69.7915ZM10.3617 4.43511C4.64571 4.43511 0 9.04529 0 14.7176C0 20.3898 4.64571 25 10.3617 25C16.0777 25 20.7234 20.3898 20.7234 14.7176C20.7234 9.04529 16.0777 4.43511 10.3617 4.43511ZM10.3617 22.7824C5.88065 22.7824 2.23464 19.1643 2.23464 14.7176C2.23464 10.2708 5.88065 6.65266 10.3617 6.65266C14.8427 6.65266 18.4887 10.2708 18.4887 14.7176C18.4887 19.1643 14.8427 22.7824 10.3617 22.7824Z" fill="#1D1D1B"/>
</svg>