<svg width="22" height="22" viewBox="0 0 22 22" fill="none" xmlns="http://www.w3.org/2000/svg">
<path d="M17.2031 0.473145H4.95312C2.53725 0.473145 0.578125 2.43227 0.578125 4.84814V17.0981C0.578125 19.514 2.53725 21.4731 4.95312 21.4731H17.2031C19.6199 21.4731 21.5781 19.514 21.5781 17.0981V4.84814C21.5781 2.43227 19.6199 0.473145 17.2031 0.473145ZM7.57812 17.0981H4.95312V7.47314H7.57812V17.0981ZM6.26562 6.36364C5.42037 6.36364 4.73438 5.67239 4.73438 4.82014C4.73438 3.96789 5.42037 3.27664 6.26562 3.27664C7.11088 3.27664 7.79688 3.96789 7.79688 4.82014C7.79688 5.67239 7.11175 6.36364 6.26562 6.36364ZM18.0781 17.0981H15.4531V12.1946C15.4531 9.24764 11.9531 9.47077 11.9531 12.1946V17.0981H9.32812V7.47314H11.9531V9.01752C13.1746 6.75477 18.0781 6.58765 18.0781 11.184V17.0981Z" fill="black"/>
</svg>
