<svg width="101" height="16" viewBox="0 0 101 16" fill="none" xmlns="http://www.w3.org/2000/svg">
<path d="M4.73734 4.27664C4.66758 3.99203 4.6841 3.6911 4.72265 3.5352C4.81994 3.08563 5.13017 2.58348 6.03149 2.58348C6.86855 2.58348 7.36051 3.0965 7.36051 3.86513V4.73891H10.9272V3.7473C10.9254 0.676408 8.12231 0.186951 6.10124 0.186951C3.56067 0.186951 1.48637 1.01903 1.10638 3.32492C1.00175 3.95759 0.985227 4.51412 1.13575 5.22836C1.75437 8.11435 6.83551 8.95005 7.57529 10.7755C7.71296 11.1145 7.67258 11.5514 7.60282 11.8179C7.48534 12.2929 7.16226 12.7714 6.20588 12.7714C5.3119 12.7714 4.77772 12.2584 4.77772 11.4862L4.77222 10.1284H0.9375V11.207C0.9375 14.3631 3.44686 15.313 6.13428 15.313C8.82171 15.313 10.8391 14.4429 11.1842 12.0808C11.3568 10.8626 11.2264 10.0704 11.1695 9.76944C10.5656 6.80732 5.14486 5.92811 4.73734 4.27664ZM51.2294 4.31108C51.1651 4.03191 51.1835 3.73642 51.2165 3.58052C51.3193 3.12913 51.6259 2.63605 52.5125 2.63605C53.3386 2.63605 53.8213 3.14364 53.8213 3.90683V4.76972H57.3458V3.78537C57.3458 0.743482 54.585 0.264901 52.5841 0.264901C50.0656 0.264901 48.0096 1.08429 47.6333 3.37386C47.5342 3.99747 47.5085 4.55037 47.6682 5.25555C48.2813 8.10891 53.311 8.93736 54.0416 10.7429C54.1701 11.0855 54.1334 11.5206 54.0673 11.778C53.9572 12.2475 53.6378 12.7207 52.6887 12.7207C51.7984 12.7207 51.2642 12.2149 51.2642 11.4535V10.0994H47.4699V11.1762C47.4699 14.296 49.9444 15.2387 52.6116 15.2387C55.2789 15.2387 57.2742 14.3776 57.612 12.0409C57.7735 10.8336 57.6524 10.0486 57.5863 9.75131C56.9952 6.82363 51.6332 5.94442 51.2275 4.30927L51.2294 4.31108ZM83.6914 12.0028L80.3247 0.636526H75.0197V14.6078H78.5295L78.3257 2.87715L81.942 14.6078H87.0305V0.636526H83.4986L83.6932 12.0028H83.6914ZM16.2433 0.636526L13.5944 14.7547H17.4567L19.4521 1.68614L21.3997 14.7547H25.2344L22.5966 0.636526H16.2415H16.2433ZM37.8363 0.636526L36.0318 11.6729L34.2292 0.636526H28.3973L28.0889 14.7547H31.6611L31.7584 1.68614L34.2164 14.7547H37.8418L40.3016 1.68614L40.3989 14.7547H43.9803L43.6609 0.636526H37.8363ZM71.0565 0.636526H67.4402V11.0801C67.4457 11.2614 67.4402 11.4662 67.409 11.6167C67.3337 11.9666 67.0327 12.6427 66.0359 12.6427C65.0391 12.6427 64.7417 11.9684 64.672 11.6167C64.6353 11.4662 64.6316 11.2614 64.6353 11.0801V0.636526H61.0208V10.7574C61.0172 11.0185 61.0374 11.5514 61.052 11.691C61.3017 14.3286 63.4054 15.1843 66.0341 15.1843C68.6627 15.1843 70.7701 14.3286 71.0252 11.691C71.0454 11.5514 71.0711 11.0185 71.0565 10.7574V0.636526ZM95.8802 6.82907V8.88842H97.3451V10.9314C97.3488 11.1145 97.3396 11.3103 97.3084 11.468C97.2496 11.8487 96.8843 12.4977 95.8435 12.4977C94.8027 12.4977 94.4502 11.8487 94.3878 11.468C94.3621 11.3103 94.3511 11.1127 94.3511 10.9314V4.47967C94.3511 4.25126 94.3676 4.00109 94.4154 3.81256C94.487 3.46813 94.7953 2.79014 95.8362 2.79014C96.9302 2.79014 97.2019 3.50438 97.2643 3.81256C97.3047 4.0156 97.3084 4.3564 97.3084 4.3564V5.13954H100.908V4.67727C100.908 4.67727 100.925 4.19325 100.881 3.74368C100.611 1.09517 98.4006 0.25765 95.8674 0.25765C93.3342 0.25765 91.1644 1.10242 90.8486 3.74368C90.8193 3.98478 90.7771 4.41985 90.7771 4.67727V10.6124C90.7771 10.8716 90.7862 11.071 90.834 11.5442C91.0689 14.1202 93.3286 15.032 95.8564 15.032C98.3841 15.032 100.644 14.1184 100.884 11.5442C100.926 11.071 100.932 10.8716 100.938 10.6124V6.82907H95.8802Z" fill="black"/>
</svg>