<svg width="92" height="23" viewBox="0 0 92 23" fill="none" xmlns="http://www.w3.org/2000/svg">
<g clip-path="url(#clip0_4602_73635)">
<path d="M81.3776 3.55176L78.7947 7.74899H82.7336V18.1129H87.5605V7.74899H91.9998V3.55176H81.3776ZM66.9617 3.55176V18.1129H71.8693V13.6251H76.8737V9.54089H71.8693V7.74899H77.0674L79.6987 3.55176H66.9617ZM60.1493 18.1129H65.1537V3.55176H60.1493V18.1129ZM53.9342 3.55176L52.8849 11.3327L50.9961 3.55176H46.9926L45.1039 11.3327L44.0545 3.55176H39.1954L41.5846 18.1129H46.9442L48.9782 11.5749L51.0123 18.1129H56.3718L58.761 3.55176H53.9342ZM26.8136 3.55176V7.74899H31.0108L26.4746 15.0457V18.1129H38.5336V13.9156H32.7705L39.2116 3.55176H26.8136Z" fill="#282828"/>
<path d="M17.2894 14.9325H14.771L23.8274 0H3.69679C1.64661 0 0 1.67889 0 3.72908C0 5.77926 1.66275 7.45816 3.69679 7.45816H6.19899L0.532726 16.8051C0.532726 16.8051 0 17.5961 0 18.7261C0 20.7601 1.63046 22.3906 3.64836 22.3906H17.2894C19.3395 22.3906 20.9862 20.7117 20.9862 18.6615C20.9862 16.6113 19.3234 14.9325 17.2894 14.9325Z" fill="#898988"/>
</g>
<defs>
<clipPath id="clip0_4602_73635">
<rect width="92" height="23" fill="white"/>
</clipPath>
</defs>
</svg>