<svg width="89" height="32" viewBox="0 0 89 32" fill="none" xmlns="http://www.w3.org/2000/svg">
<path d="M8.71609 15.2246H11.5785C11.947 15.2246 12.2657 15.05 12.5329 14.6999C12.7995 14.3502 12.9334 13.9017 12.9334 13.3546C12.9334 12.7945 12.7809 12.3499 12.4748 12.0189C12.1701 11.6884 11.8391 11.5227 11.4826 11.5227H8.71609V15.2246ZM5.58691 22.3223V8.7749H11.6928C12.3286 8.7749 12.9168 8.9088 13.4575 9.17623C13.998 9.44313 14.4657 9.7927 14.86 10.2255C15.2542 10.6581 15.5634 11.1475 15.7856 11.6948C16.008 12.2416 16.1192 12.7945 16.1192 13.3546C16.1192 13.774 16.0687 14.1781 15.9663 14.5662C15.8645 14.9543 15.7192 15.3199 15.528 15.6635C15.3369 16.0067 15.1053 16.3155 14.8317 16.5891C14.5583 16.8622 14.2493 17.0943 13.9065 17.2852L16.8825 22.3223H13.3529L10.758 17.9526H8.71609V22.3223H5.58691Z" fill="black"/>
<path d="M49.1504 19.6511C49.6842 19.6511 50.1353 19.5395 50.5048 19.3174C50.8737 19.0945 51.1722 18.799 51.4018 18.4296C51.6309 18.0603 51.7929 17.6381 51.8879 17.1608C51.9837 16.6837 52.0306 16.1971 52.0306 15.7012V8.77466H55.1604V15.7012C55.1604 16.6427 55.0427 17.5206 54.8071 18.3346C54.5721 19.1484 54.2093 19.8608 53.7204 20.4712C53.2299 21.082 52.6067 21.5623 51.8506 21.9119C51.093 22.2624 50.1927 22.4367 49.1504 22.4367C48.0686 22.4367 47.1465 22.2523 46.3835 21.8835C45.6207 21.5146 45 21.0223 44.5231 20.405C44.046 19.7876 43.6961 19.0726 43.4735 18.2581C43.2506 17.4441 43.1396 16.5919 43.1396 15.7012V8.77466H46.2686V15.7012C46.2686 16.2232 46.3199 16.7189 46.4213 17.1896C46.5237 17.6602 46.6887 18.0799 46.9174 18.4489C47.1465 18.8182 47.4428 19.1102 47.8054 19.3262C48.1677 19.5433 48.6162 19.6511 49.1504 19.6511Z" fill="black"/>
<path d="M62.9321 8.77515L66.1188 18.392L69.2673 8.77515H72.5676L67.435 22.3224H64.802L59.6123 8.77515H62.9321Z" fill="black"/>
<path d="M79.3243 8.77515L82.2438 14.9961L85.2012 8.77515H88.6168L83.7896 17.7055V22.3224H80.6792V17.6668L75.9277 8.77515H79.3243Z" fill="black"/>
<path d="M24.391 10.7618C25.3719 8.80147 27.3928 7.4553 29.7285 7.45565C33.0253 7.456 35.6961 10.1362 35.6952 13.4407C35.6949 14.9849 35.1109 16.3933 34.1523 17.4542C34.9473 18.0242 35.7936 18.6336 36.5738 19.2086C37.8741 17.6449 38.6578 15.635 38.6582 13.4416C38.6591 7.59519 34.6068 1.99659 26.6302 0.790493C18.577 -0.428146 12.0255 -0.397411 0 2.01991C4.66806 2.31843 8.00073 3.01492 11.7937 4.23356C15.3311 5.36812 18.3866 6.83052 23.1213 9.93567L24.391 10.7618Z" fill="black"/>
<path d="M32.9713 13.4406C32.9708 15.1846 31.5583 16.5957 29.8156 16.5953C28.073 16.5948 26.6605 15.1832 26.6609 13.4394C26.6612 11.6968 28.0742 10.2845 29.8168 10.2849C31.5597 10.2852 32.9717 11.6979 32.9713 13.4406Z" fill="black"/>
<path d="M31.208 19.2374C30.7337 19.3588 30.2361 19.4238 29.7235 19.4238C26.6267 19.4233 24.082 17.0568 23.7866 14.029C22.7779 13.3507 21.7039 12.685 20.7089 12.0427C20.6372 12.4976 20.6006 12.963 20.6006 13.438C20.5995 18.4237 24.6407 22.4662 29.6258 22.4675C31.2163 22.4677 32.7098 22.0568 34.0077 21.3354C33.0837 20.6419 32.1308 19.9122 31.208 19.2374Z" fill="black"/>
<path d="M6.58168 26.8502L6.58203 31.2158L5.57359 31.2159L5.57324 26.8502L6.58168 26.8502Z" fill="black"/>
<path d="M8.61391 28.7199L8.61408 31.2164H7.60565L7.60547 26.8507H8.3924L10.428 29.4146L10.4276 26.8505L11.4361 26.8503L11.4364 31.216L10.6248 31.2162L8.61391 28.7199Z" fill="black"/>
<path d="M15.2257 29.0271C15.2257 28.8346 15.2001 28.6594 15.1489 28.5015C15.0975 28.3437 15.0229 28.2074 14.9244 28.0925C14.826 27.9779 14.705 27.8898 14.5616 27.8281C14.4181 27.7666 14.2561 27.7359 14.0758 27.7359H13.4547L13.4551 30.3307H14.0761C14.2606 30.3307 14.4243 30.2979 14.5679 30.2324C14.7113 30.1668 14.8313 30.0757 14.9277 29.9587C15.0238 29.8418 15.0977 29.7046 15.1489 29.5466C15.2001 29.3891 15.2257 29.2158 15.2257 29.0271ZM12.4466 31.2164L12.4463 26.8508L14.0758 26.8506C14.4363 26.8506 14.7521 26.908 15.0228 27.0226C15.2932 27.1374 15.5198 27.2931 15.7021 27.4898C15.8844 27.6866 16.0218 27.9171 16.1142 28.1816C16.2064 28.446 16.2525 28.7279 16.2525 29.027C16.2527 29.3591 16.2013 29.6593 16.0988 29.9278C15.9964 30.1963 15.85 30.426 15.6594 30.6165C15.4688 30.8073 15.2391 30.9548 14.9708 31.0594C14.7022 31.164 14.404 31.2162 14.0761 31.2162L12.4466 31.2164Z" fill="black"/>
<path d="M17.8139 29.0391C17.8139 29.2071 17.8386 29.3701 17.8878 29.5279C17.937 29.6856 18.0096 29.826 18.1061 29.949C18.2023 30.0721 18.3223 30.1703 18.4657 30.2441C18.6092 30.318 18.7734 30.3549 18.9578 30.3549C19.1504 30.3549 19.3184 30.316 19.462 30.2379C19.6054 30.1602 19.7241 30.0587 19.8186 29.9336C19.9128 29.8084 19.9836 29.6672 20.0307 29.5091C20.0777 29.3516 20.1012 29.1905 20.1012 29.0266C20.1012 28.8586 20.0767 28.6957 20.0276 28.5376C19.9783 28.38 19.9045 28.2405 19.8061 28.1199C19.7077 27.9989 19.5877 27.9024 19.4464 27.8307C19.3049 27.7592 19.1421 27.7231 18.9575 27.7231C18.7648 27.7231 18.5978 27.7611 18.4564 27.8369C18.315 27.9128 18.1962 28.0123 18.0997 28.1352C18.0035 28.2582 17.9317 28.3986 17.8846 28.5563C17.8374 28.7141 17.8139 28.875 17.8139 29.0391ZM18.9517 31.2526C18.6277 31.2526 18.3327 31.1892 18.0662 31.062C17.7996 30.935 17.5723 30.768 17.3836 30.561C17.1951 30.354 17.0485 30.1173 16.944 29.8509C16.8394 29.5844 16.7873 29.3097 16.7871 29.0269C16.7871 28.74 16.8413 28.4632 16.95 28.1967C17.0586 27.9305 17.2103 27.6957 17.405 27.4928C17.5997 27.2898 17.8302 27.1278 18.0967 27.0068C18.3631 26.886 18.654 26.8254 18.9697 26.8254C19.2935 26.8254 19.5886 26.889 19.8552 27.0159C20.1217 27.143 20.3492 27.311 20.5377 27.52C20.7264 27.7291 20.8719 27.9671 20.9745 28.2333C21.0768 28.4998 21.1282 28.7704 21.1282 29.0449C21.1282 29.332 21.074 29.6088 20.9654 29.875C20.8567 30.1415 20.706 30.3761 20.5135 30.5792C20.3206 30.782 20.0912 30.945 19.8248 31.0682C19.5582 31.1911 19.2673 31.2526 18.9517 31.2526Z" fill="black"/>
<path d="M22.6704 29.0381C22.6704 29.2061 22.6951 29.3691 22.7442 29.5269C22.7935 29.6846 22.8661 29.825 22.9625 29.948C23.0588 30.0711 23.1787 30.1693 23.3222 30.2432C23.4656 30.317 23.6299 30.3539 23.8143 30.3539C24.0068 30.3539 24.1748 30.3149 24.3184 30.2368C24.4618 30.1591 24.5805 30.0575 24.675 29.9324C24.7692 29.8074 24.84 29.6662 24.8872 29.5082C24.9342 29.3506 24.9577 29.1895 24.9577 29.0256C24.9577 28.8576 24.9331 28.6947 24.884 28.5366C24.8347 28.3791 24.7609 28.2395 24.6625 28.1187C24.5641 27.9977 24.4442 27.9013 24.3029 27.8295C24.1614 27.758 23.9985 27.7221 23.8139 27.7221C23.6212 27.7221 23.4543 27.7601 23.3128 27.8359C23.1715 27.9119 23.0526 28.0113 22.9562 28.1342C22.8599 28.2572 22.7882 28.3976 22.741 28.5554C22.6939 28.7131 22.6704 28.874 22.6704 29.0381ZM23.8081 31.2516C23.4841 31.2516 23.1892 31.1882 22.9226 31.061C22.6561 30.934 22.4287 30.7669 22.2401 30.5599C22.0516 30.3528 21.905 30.1163 21.8004 29.85C21.6958 29.5834 21.6437 29.3087 21.6436 29.0259C21.6436 28.7391 21.6978 28.4623 21.8064 28.1957C21.9151 27.9295 22.0668 27.6946 22.2614 27.4916C22.4561 27.2887 22.6866 27.1269 22.9532 27.0059C23.2195 26.8851 23.5105 26.8245 23.8261 26.8245C24.1499 26.8243 24.4451 26.8879 24.7116 27.0149C24.9782 27.1421 25.2057 27.31 25.3942 27.519C25.5828 27.7282 25.7284 27.9661 25.831 28.2323C25.9333 28.4988 25.9847 28.7694 25.9847 29.0439C25.9847 29.331 25.9304 29.6078 25.8218 29.874C25.7132 30.1405 25.5625 30.3751 25.37 30.5782C25.1771 30.781 24.9476 30.9441 24.6812 31.067C24.4147 31.1899 24.1238 31.2516 23.8081 31.2516Z" fill="black"/>
<path d="M27.7653 28.9269L28.6877 28.9267C28.8066 28.9267 28.909 28.8706 28.995 28.7577C29.0812 28.6448 29.1242 28.5005 29.1242 28.3242C29.1242 28.1437 29.0749 28.0004 28.9765 27.8937C28.8781 27.7872 28.7716 27.7339 28.6568 27.7339L27.7653 27.7341V28.9269ZM26.757 31.2142L26.7568 26.8486L28.7244 26.8484C28.9293 26.8484 29.1189 26.8915 29.293 26.9775C29.4674 27.0635 29.618 27.1764 29.7451 27.3158C29.8722 27.4551 29.9715 27.6131 30.0434 27.7893C30.1151 27.9656 30.151 28.1437 30.151 28.3242C30.151 28.4595 30.1347 28.5897 30.1019 28.7146C30.069 28.8397 30.0218 28.9575 29.9604 29.0682C29.8989 29.1788 29.8242 29.2782 29.736 29.3664C29.6479 29.4545 29.5486 29.5293 29.4379 29.5909L30.3972 31.214H29.2596L28.4234 29.8062H27.7653L27.7655 31.2142H26.757Z" fill="black"/>
<path d="M32.5986 28.9945C32.5986 28.7323 32.6477 28.4709 32.7461 28.2105C32.8445 27.9502 32.9879 27.7175 33.1764 27.5125C33.3651 27.3075 33.5947 27.1415 33.8651 27.0143C34.1356 26.8873 34.4431 26.8237 34.7874 26.8237C35.1972 26.8236 35.5529 26.9119 35.8543 27.088C36.1556 27.2643 36.3801 27.4939 36.5276 27.7765L35.7529 28.3178C35.7038 28.2031 35.6411 28.1077 35.5653 28.0319C35.4895 27.956 35.4065 27.8945 35.3162 27.8474C35.2262 27.8002 35.1339 27.7675 35.0396 27.7491C34.9453 27.7308 34.8531 27.7214 34.7628 27.7214C34.5703 27.7214 34.4021 27.7606 34.2587 27.8384C34.1151 27.9162 33.9964 28.0166 33.9021 28.1395C33.8079 28.2625 33.7381 28.402 33.6931 28.5576C33.6479 28.7136 33.6254 28.8713 33.6254 29.0312C33.6254 29.2034 33.6521 29.3693 33.7055 29.5291C33.7586 29.6892 33.8355 29.8305 33.9362 29.9536C34.0365 30.0766 34.1575 30.1739 34.2988 30.2456C34.4403 30.3173 34.5993 30.3532 34.7755 30.3532C34.8656 30.3532 34.9589 30.3419 35.0552 30.3194C35.1514 30.2966 35.2436 30.2619 35.332 30.2147C35.4199 30.1677 35.501 30.1061 35.5747 30.0301C35.6485 29.9545 35.7078 29.8611 35.7531 29.7503L36.5769 30.2361C36.5114 30.3961 36.4142 30.5395 36.2851 30.6667C36.1558 30.7937 36.0073 30.9002 35.8393 30.9863C35.6711 31.0725 35.4927 31.1382 35.3042 31.1832C35.1158 31.2282 34.9312 31.2509 34.751 31.2509C34.4352 31.2509 34.1451 31.1864 33.8809 31.0573C33.6164 30.928 33.3889 30.7571 33.1983 30.5438C33.0077 30.3306 32.8601 30.0889 32.7555 29.8185C32.6509 29.5479 32.5986 29.2732 32.5986 28.9945Z" fill="black"/>
<path d="M37.8542 26.8483L38.7952 28.8528L39.748 26.8481H40.8486L39.2933 29.726V31.214H38.2911V29.7138L36.7598 26.8485L37.8542 26.8483Z" fill="black"/>
<path d="M40.8857 28.9942C40.8857 28.7321 40.9348 28.4707 41.0332 28.2103C41.1316 27.9499 41.2751 27.7173 41.4635 27.5124C41.6522 27.3073 41.8818 27.1413 42.1523 27.0141C42.4227 26.8871 42.7302 26.8235 43.0745 26.8235C43.4843 26.8235 43.84 26.9116 44.1414 27.0877C44.4427 27.264 44.6673 27.4937 44.8147 27.7763L44.04 28.3175C43.9909 28.2029 43.9282 28.1075 43.8524 28.0317C43.7766 27.9557 43.6936 27.8945 43.6033 27.8473C43.5133 27.8001 43.4211 27.7675 43.3267 27.7489C43.2324 27.7305 43.1402 27.7212 43.0499 27.7212C42.8574 27.7212 42.6892 27.7604 42.5458 27.8381C42.4022 27.916 42.2835 28.0163 42.1892 28.1393C42.095 28.2622 42.0252 28.4018 41.9802 28.5574C41.935 28.7134 41.9126 28.8711 41.9126 29.031C41.9126 29.2032 41.9392 29.369 41.9926 29.5289C42.0457 29.6889 42.1226 29.8303 42.2233 29.9534C42.3236 30.0763 42.4446 30.1736 42.5859 30.2454C42.7274 30.3171 42.8864 30.3529 43.0627 30.3529C43.1527 30.3529 43.246 30.3416 43.3423 30.3192C43.4385 30.2966 43.5307 30.2618 43.6191 30.2146C43.707 30.1676 43.7881 30.1058 43.8618 30.0299C43.9356 29.9543 43.995 29.8608 44.0402 29.7501L44.864 30.2358C44.7985 30.3959 44.7013 30.5393 44.5722 30.6665C44.4429 30.7935 44.2944 30.9 44.1264 30.986C43.9582 31.0722 43.7798 31.1379 43.5913 31.1831C43.4029 31.228 43.2183 31.2506 43.0381 31.2506C42.7223 31.2506 42.4322 31.1861 42.168 31.057C41.9035 30.9277 41.676 30.7569 41.4854 30.5437C41.2948 30.3305 41.1472 30.0887 41.0426 29.8182C40.938 29.5476 40.8857 29.273 40.8857 28.9942Z" fill="black"/>
<path d="M45.5599 31.2137L45.5596 26.8481L46.568 26.8479L46.5682 30.3281L48.6834 30.3279V31.2134L45.5599 31.2137Z" fill="black"/>
<path d="M50.3444 26.8478L50.3447 31.2136L49.3363 31.2137L49.3359 26.8479L50.3444 26.8478Z" fill="black"/>
<path d="M52.3766 28.717L52.3768 31.2135L51.3683 31.2137L51.3682 26.848H52.1551L54.1907 29.4119L54.1903 26.8478L55.1988 26.8477L55.1991 31.2133L54.3875 31.2135L52.3766 28.717Z" fill="black"/>
<path d="M59.2165 30.7809C58.8845 31.0883 58.5012 31.2421 58.0666 31.2421C57.7798 31.2421 57.5091 31.1881 57.2551 31.0793C57.0008 30.9706 56.7786 30.818 56.588 30.6214C56.3974 30.4245 56.2465 30.1879 56.1359 29.9112C56.0252 29.6345 55.9699 29.3302 55.9697 28.9981C55.9697 28.6989 56.0252 28.4161 56.1358 28.1497C56.2463 27.8832 56.399 27.6514 56.5938 27.4548C56.7885 27.2578 57.019 27.102 57.2853 26.9872C57.5519 26.8726 57.8388 26.8152 58.1463 26.8152C58.552 26.8152 58.9067 26.9 59.21 27.0701C59.5135 27.2402 59.741 27.4728 59.8927 27.768L59.1425 28.3338C59.044 28.1368 58.9016 27.9842 58.7151 27.8757C58.5285 27.7671 58.3266 27.7129 58.1094 27.7129C57.9414 27.7129 57.7888 27.7466 57.6513 27.8143C57.5139 27.8819 57.3963 27.9762 57.2979 28.0972C57.1995 28.2181 57.1235 28.3585 57.0704 28.5182C57.017 28.6782 56.9904 28.8503 56.9904 29.0348C56.9904 29.2235 57.0191 29.3977 57.0766 29.5573C57.134 29.7174 57.214 29.8557 57.3164 29.9724C57.4189 30.0894 57.5409 30.1807 57.6823 30.2462C57.8237 30.3118 57.9806 30.3445 58.1528 30.3445C58.5464 30.3445 58.9007 30.162 59.2165 29.7972V29.6617L58.3678 29.6619V28.9303L60.0526 28.9301L60.0528 31.2114H59.2165V30.7809Z" fill="black"/>
<path d="M63.651 28.9243H64.5734C64.6923 28.9243 64.7948 28.8681 64.8808 28.7552C64.967 28.6424 65.0099 28.4981 65.0099 28.3218C65.0099 28.1412 64.9606 27.998 64.8622 27.8913C64.7638 27.7848 64.6573 27.7314 64.5425 27.7314H63.651V28.9243ZM62.6428 31.2118L62.6426 26.8461L64.6102 26.8459C64.8151 26.8459 65.0046 26.889 65.1788 26.9751C65.3531 27.0611 65.5038 27.1738 65.6308 27.3132C65.758 27.4525 65.8572 27.6104 65.9291 27.7867C66.0009 27.963 66.0367 28.1411 66.0367 28.3216C66.0367 28.4569 66.0205 28.5871 65.9876 28.712C65.9548 28.837 65.9076 28.9549 65.8461 29.0656C65.7846 29.1762 65.7099 29.2756 65.6218 29.3638C65.5336 29.4519 65.4344 29.5266 65.3236 29.5885L66.283 31.2114L65.1454 31.2116L64.3092 29.8036H63.651L63.6512 31.2116L62.6428 31.2118Z" fill="black"/>
<path d="M70.0227 30.3256V31.2111L66.9545 31.2115L66.9541 26.8458L69.967 26.8455V27.731L67.9625 27.7311V28.5795H69.6842L69.6844 29.3974H67.9627V30.3258L70.0227 30.3256Z" fill="black"/>
<path d="M72.9747 29.538L72.4642 27.9949L71.9417 29.538H72.9747ZM72.0092 26.845H72.9193L74.512 31.2105L73.479 31.2106L73.1408 30.2329L71.7819 30.2331L71.45 31.2108H70.417L72.0092 26.845Z" fill="black"/>
<path d="M75.1185 31.2114L75.1182 26.8457H76.1266L76.1268 30.3259L78.242 30.3257V31.2112L75.1185 31.2114Z" fill="black"/>
<path d="M79.9137 26.8445L79.9141 31.2102L78.9056 31.2103L78.9053 26.8446L79.9137 26.8445Z" fill="black"/>
<path d="M84.2715 27.73H82.9434L82.9435 31.2101L81.9353 31.2103L81.9349 27.7302H80.6006V26.8447L84.2715 26.8445V27.73Z" fill="black"/>
<path d="M85.6159 26.8449L86.5569 28.8494L87.5097 26.8447H88.6103L87.055 29.7224V31.2104L86.0528 31.2106V29.7104L84.5215 26.8451L85.6159 26.8449Z" fill="black"/>
</svg>