<svg width="99" height="15" viewBox="0 0 99 15" fill="none" xmlns="http://www.w3.org/2000/svg">
<path opacity="0.98" d="M25.8416 1.54249C25.6761 1.21272 25.2378 0.943332 24.8671 0.943332H24.1142C23.7435 0.943332 23.3099 1.21504 23.1514 1.54713L17.1764 13.9808C17.0109 14.3105 17.1904 14.5451 17.5611 14.5451H18.9412C19.4867 14.5451 19.7361 14.2989 19.883 13.9947C20.0322 13.6928 20.3609 13.0333 20.4238 12.9009C20.5078 12.7198 20.7712 12.6083 21.1419 12.6083L27.5714 12.6129C27.942 12.6129 28.1798 12.6849 28.2894 12.9009C28.3616 13.0426 28.6903 13.6347 28.8512 13.9575C29.0144 14.2803 29.2871 14.5451 29.8187 14.5451H31.8212C32.1918 14.5451 32.3527 14.2641 32.2198 14.004C32.0869 13.7439 25.8416 1.54017 25.8416 1.54017V1.54249ZM22.0673 10.6901C21.6967 10.6901 21.5218 10.416 21.678 10.0816L24.0326 5.05614C24.1888 4.72173 24.4429 4.72405 24.5944 5.05614L26.886 10.0816C27.0398 10.416 26.8603 10.6924 26.492 10.6924H22.065L22.0673 10.6901ZM72.0091 1.64002V13.9738C72.0091 14.3129 72.3122 14.5451 72.6828 14.5451H74.3147C74.6854 14.5451 74.9884 14.3105 74.9884 13.9413V1.61448C74.9884 1.24523 74.7483 0.943332 74.38 0.943332H72.6828C72.3122 0.943332 72.0091 1.17092 72.0091 1.64002ZM44.6499 9.36634C44.4378 9.06444 44.5543 8.73003 44.9087 8.62553C44.9087 8.62553 46.319 8.20519 46.9951 7.60139C47.6712 6.99759 48.0092 6.12208 48.0092 4.98415C48.0092 4.23869 47.8786 3.61399 47.6175 3.1054C47.3564 2.59682 46.9834 2.18112 46.4986 1.86297C46.0137 1.54249 45.4332 1.30793 44.7571 1.16163C44.0787 1.01532 43.1672 0.973522 43.1672 0.973522C42.7966 0.957266 42.1905 0.943332 41.8221 0.943332H35.0429C34.6723 0.943332 34.3692 1.24523 34.3692 1.61448V13.9436C34.3692 14.3129 34.6723 14.5474 35.0429 14.5474H36.6468C37.0175 14.5474 37.3205 14.3129 37.3205 13.9436C37.3205 13.9436 37.3205 9.0389 37.3252 9.0389C37.3275 9.0389 37.3299 9.03658 37.3299 9.03193C37.3299 9.02729 40.3721 9.02496 40.3721 9.02496C40.7428 9.02496 41.2207 9.27113 41.4328 9.57303L44.5893 14.0017C44.883 14.3941 45.1628 14.5474 45.5311 14.5474H47.6292C47.9999 14.5474 48.0581 14.1991 47.9299 14.0179C47.8017 13.8391 44.6499 9.36402 44.6499 9.36402V9.36634ZM43.3724 6.8629C42.9574 6.95811 42.4888 6.97669 42.4888 6.97669C42.1182 6.99295 41.5144 7.00688 41.1437 7.00688H38.0012C37.6306 7.00688 37.3275 6.70498 37.3275 6.33573V3.83693C37.3275 3.46768 37.6306 3.16578 38.0012 3.16578H41.1437C41.5144 3.16578 42.1182 3.17971 42.4888 3.19365C42.4888 3.19365 42.9574 3.21223 43.3724 3.30744C43.7873 3.40266 44.1184 3.53735 44.3585 3.7092C44.6009 3.88337 44.7734 4.08542 44.8783 4.31997C44.9809 4.55452 45.0345 4.80765 45.0345 5.08633C45.0345 5.36501 44.9809 5.61814 44.8783 5.85269C44.7734 6.08492 44.6009 6.28929 44.3585 6.46346C44.1184 6.63763 43.7873 6.77233 43.3724 6.86522V6.8629ZM92.0553 0.943332C91.6846 0.943332 91.3862 1.18717 91.3862 1.54249C91.3862 1.71202 91.3909 9.42905 91.3909 9.42905C91.3909 9.79829 91.1811 9.8819 90.9247 9.61715L82.9962 1.42637C82.7397 1.16163 82.3621 0.943332 81.8539 0.943332H80.3642C79.8956 0.943332 79.6905 1.19182 79.6905 1.44495V14.0551C79.6905 14.3059 79.9306 14.5474 80.3013 14.5474H81.7932C82.1616 14.5474 82.4227 14.3477 82.4227 14.0063C82.4227 13.8368 82.4297 5.69942 82.4297 5.69942C82.4297 5.33017 82.6395 5.24657 82.8959 5.51363L91.1601 14.0737C91.4235 14.3361 91.7406 14.5497 92.3094 14.5497H93.4307C93.8014 14.5497 94.1044 14.2478 94.1044 13.8786V1.61448C94.1044 1.24523 93.8014 0.943332 93.4307 0.943332H92.053H92.0553ZM59.7376 8.63249C59.5581 8.9553 59.262 8.95297 59.0848 8.63249L55.2103 1.54249C55.0448 1.21272 54.7068 0.943332 54.2382 0.943332H52.1378C51.7671 0.943332 51.4641 1.24523 51.4641 1.61448V13.9274C51.4641 14.2966 51.7065 14.5474 52.1378 14.5474H53.4433C53.8139 14.5474 54.082 14.3152 54.082 13.9599C54.082 13.7903 54.0867 5.00505 54.1007 5.00505C54.1147 5.00505 58.938 13.9575 58.938 13.9575C59.1128 14.2827 59.5417 14.2827 59.7189 13.9599C59.7189 13.9599 64.5795 5.03059 64.5958 5.03059C64.6098 5.03059 64.6052 13.7044 64.6052 13.9599C64.6052 14.3152 64.8896 14.5474 65.2626 14.5474H66.7662C67.1369 14.5474 67.4399 14.364 67.4399 13.8763V1.61448C67.4399 1.24523 67.1369 0.943332 66.7662 0.943332H64.752C64.2368 0.943332 63.9291 1.20575 63.7449 1.52623L59.7422 8.63249H59.7376ZM0 7.73376C0 14.3779 6.82116 14.7146 8.18725 14.7146C12.7145 14.7146 14.6261 13.4954 14.7053 13.4443C14.9874 13.2841 15.3324 12.9636 15.3324 12.3598V7.77324C15.3324 7.35058 14.9874 7.00688 14.5631 7.00688H8.87729C8.45301 7.00688 8.17326 7.35058 8.17326 7.77324V8.24699C8.17326 8.66965 8.45301 9.01568 8.87729 9.01568H12.1666C12.4837 9.01568 12.7425 9.27345 12.7425 9.58928C12.7425 9.58928 12.7401 11.5981 12.7401 11.7258C12.0897 11.9906 9.1314 12.8521 6.75355 12.2855C3.30334 11.4634 3.03525 8.62785 3.03525 7.78021C3.03525 7.06726 3.24972 3.49787 7.48555 3.13559C10.9148 2.84298 13.1737 4.22243 13.1947 4.23637C13.598 4.44537 14.0153 4.29675 14.2391 3.87176C14.2391 3.86712 14.6657 3.00786 14.6657 3.00786C14.8429 2.65487 14.7846 2.28563 14.3487 1.99302C14.3207 1.97676 11.9149 0.678589 8.18492 0.678589C0.22846 0.678589 0 7.01152 0 7.73376ZM97.4427 11.7188C98.3006 11.7188 99 12.4155 99 13.2701C99 14.1248 98.3006 14.8214 97.4427 14.8214C96.5849 14.8214 95.8855 14.1248 95.8855 13.2701C95.8855 12.4155 96.5849 11.7188 97.4427 11.7188ZM97.4474 14.5892C98.1631 14.5892 98.7039 14.0133 98.7039 13.2701C98.7039 12.527 98.1654 11.9511 97.4474 11.9511C96.7294 11.9511 96.1839 12.527 96.1839 13.2701C96.1839 14.0133 96.7224 14.5892 97.4474 14.5892ZM96.8483 12.3598H97.5476C97.9673 12.3598 98.1724 12.527 98.1724 12.8707C98.1724 13.1633 97.9859 13.3746 97.7015 13.3746L98.219 14.1782H97.9043L97.3961 13.3746H97.1467V14.1782H96.8483V12.3598ZM97.1467 13.1424H97.501C97.7295 13.1424 97.8764 13.096 97.8764 12.8591C97.8764 12.6524 97.6898 12.592 97.501 12.592H97.1467V13.1424Z" fill="black"/>
</svg>